<svg width="90" height="90" viewBox="0 0 90 90" fill="none" xmlns="http://www.w3.org/2000/svg">
<g id="Icon">
<g id="Group">
<path id="Vector" d="M55.1036 12.4437C48.7147 28.1097 30.8384 35.6316 15.1724 29.2427C10.517 27.3447 6.57807 24.4299 3.51315 20.8614C1.72165 18.777 0.767792 16.1018 0.767792 13.3516V5.07438C0.767792 2.42102 2.92002 0.268799 5.57337 0.268799H57.372C57.4543 4.31905 56.7304 8.45161 55.1036 12.4437Z" fill="#967DFC"/>
<path id="Vector_2" d="M89.5416 5.02596V56.873C85.4913 56.9553 81.3563 56.2314 77.3666 54.6046C61.7006 48.2157 54.1812 30.3394 60.5676 14.6734C62.4657 10.0155 65.3805 6.07908 68.9514 3.01415C71.0358 1.22265 73.711 0.268799 76.4588 0.268799H84.7844C87.4111 0.268799 89.5416 2.39923 89.5416 5.02596Z" fill="#21CFA9"/>
<path id="Vector_3" d="M29.7417 74.6404C27.8437 79.2959 24.9289 83.2348 21.3604 86.2997C19.2759 88.0912 16.6008 89.045 13.853 89.045H5.52496C2.89823 89.0426 0.767792 86.9122 0.767792 84.2855V32.4384C4.81804 32.3561 8.95302 33.08 12.9427 34.7068C28.6087 41.0957 36.1306 58.972 29.7417 74.638V74.6404Z" fill="#FFDE68"/>
<path id="Vector_4" d="M89.5416 75.9596V84.2853C89.5416 86.912 87.4111 89.0424 84.7844 89.0424H32.9374C32.855 84.9922 33.5789 80.8596 35.2058 76.8675C41.5947 61.2015 59.4709 53.682 75.1369 60.0685C79.7948 61.9665 83.7313 64.8813 86.7962 68.4522C88.5853 70.5367 89.5416 73.2118 89.5416 75.9596Z" fill="#FEADE7"/>
</g>
<path id="Vector_5" d="M54.6702 49.1865C47.7415 48.1455 45.3811 49.063 40.9725 54.5077C40.7764 54.7498 40.3891 54.5779 40.4351 54.2705C41.4761 47.3417 40.5585 44.9813 35.1138 40.5727C34.8717 40.3766 35.0436 39.9893 35.3511 40.0353C42.2798 41.0763 44.6403 40.1588 49.0488 34.714C49.2449 34.4719 49.6323 34.6438 49.5863 34.9513C48.5452 41.88 49.4628 44.2405 54.9075 48.649C55.1496 48.8451 54.9777 49.2325 54.6702 49.1865Z" fill="white"/>
</g>
</svg>
